<svg width="972" height="973" viewBox="0 0 972 973" fill="none" xmlns="http://www.w3.org/2000/svg">
<rect y="0.5" width="972" height="972" rx="81" fill="url(#paint0_linear_170_266)"/>
<path d="M163.251 755.5V230.492H390.504C437.505 230.492 478.005 238.243 512.006 253.743C546.006 268.743 572.257 290.493 590.757 318.994C609.257 347.494 618.507 381.495 618.507 420.995C618.507 459.996 609.257 493.746 590.757 522.247C572.257 550.747 546.006 572.747 512.006 588.248C478.005 603.248 437.505 610.748 390.504 610.748H230.752L284.753 555.997V755.5H163.251ZM284.753 569.497L230.752 511.746H383.754C421.255 511.746 449.255 503.746 467.755 487.746C486.256 471.746 495.506 449.496 495.506 420.995C495.506 391.995 486.256 369.494 467.755 353.494C449.255 337.494 421.255 329.494 383.754 329.494H230.752L284.753 271.743V569.497ZM649.72 755.5V423.76H741.596V517.486L728.647 490.355C738.513 466.923 754.339 449.247 776.126 437.326C797.914 424.993 824.428 418.827 855.67 418.827V507.62C851.559 507.209 847.86 507.003 844.571 507.003C841.282 506.592 837.788 506.387 834.088 506.387C807.779 506.387 786.403 513.992 769.96 529.202C753.928 544 745.912 567.226 745.912 598.879V755.5H649.72Z" fill="url(#paint1_linear_170_266)"/>
<defs>
<linearGradient id="paint0_linear_170_266" x1="0" y1="0.5" x2="891.5" y2="972.5" gradientUnits="userSpaceOnUse">
<stop offset="0.396095" stop-color="#282323"/>
<stop offset="1" stop-color="#393A3D"/>
</linearGradient>
<linearGradient id="paint1_linear_170_266" x1="486" y1="222" x2="486" y2="755.5" gradientUnits="userSpaceOnUse">
<stop stop-color="#009BFF"/>
<stop offset="1" stop-color="#0059FF"/>
</linearGradient>
</defs>
</svg>
