<svg width="4712" height="975" viewBox="0 0 4712 975" fill="none" xmlns="http://www.w3.org/2000/svg">
<rect y="1.5" width="972" height="972" rx="81" fill="url(#paint0_linear_170_269)"/>
<path d="M163.251 756.5V231.492H390.504C437.505 231.492 478.005 239.243 512.006 254.743C546.006 269.743 572.257 291.493 590.757 319.994C609.257 348.494 618.507 382.495 618.507 421.995C618.507 460.996 609.257 494.746 590.757 523.247C572.257 551.747 546.006 573.747 512.006 589.248C478.005 604.248 437.505 611.748 390.504 611.748H230.752L284.753 556.997V756.5H163.251ZM284.753 570.497L230.752 512.746H383.754C421.255 512.746 449.255 504.746 467.755 488.746C486.256 472.746 495.506 450.496 495.506 421.995C495.506 392.995 486.256 370.494 467.755 354.494C449.255 338.494 421.255 330.494 383.754 330.494H230.752L284.753 272.743V570.497ZM649.72 756.5V424.76H741.596V518.486L728.647 491.355C738.513 467.923 754.339 450.247 776.126 438.326C797.914 425.993 824.428 419.827 855.67 419.827V508.62C851.559 508.209 847.86 508.003 844.571 508.003C841.282 507.592 837.788 507.387 834.088 507.387C807.779 507.387 786.403 514.992 769.96 530.202C753.928 545 745.912 568.226 745.912 599.879V756.5H649.72Z" fill="url(#paint1_linear_170_269)"/>
<path d="M1371 774V214H1627C1678.2 214 1722.2 222.267 1759 238.8C1796.33 255.333 1825.13 279.333 1845.4 310.8C1865.67 341.733 1875.8 378.533 1875.8 421.2C1875.8 463.333 1865.67 499.867 1845.4 530.8C1825.13 561.733 1796.33 585.733 1759 602.8C1722.2 619.333 1678.2 627.6 1627 627.6H1459L1529.4 558.8V774H1371ZM1529.4 575.6L1459 502.8H1617.4C1650.47 502.8 1675 495.6 1691 481.2C1707.53 466.8 1715.8 446.8 1715.8 421.2C1715.8 395.067 1707.53 374.8 1691 360.4C1675 346 1650.47 338.8 1617.4 338.8H1459L1529.4 266V575.6ZM1956.96 774V340.4H2101.76V466.8L2080.16 430.8C2092.96 398.267 2113.76 374 2142.56 358C2171.36 341.467 2206.29 333.2 2247.36 333.2V470C2240.42 468.933 2234.29 468.4 2228.96 468.4C2224.16 467.867 2218.82 467.6 2212.96 467.6C2182.02 467.6 2156.96 476.133 2137.76 493.2C2118.56 509.733 2108.96 536.933 2108.96 574.8V774H1956.96ZM2502.04 781.2C2466.84 781.2 2435.11 774.267 2406.84 760.4C2379.11 746.533 2357.24 724.933 2341.24 695.6C2325.78 665.733 2318.04 628.133 2318.04 582.8V340.4H2470.04V558C2470.04 591.6 2476.18 615.6 2488.44 630C2501.24 644.4 2519.11 651.6 2542.04 651.6C2556.98 651.6 2570.58 648.133 2582.84 641.2C2595.11 634.267 2604.98 623.333 2612.44 608.4C2619.91 592.933 2623.64 573.2 2623.64 549.2V340.4H2775.64V774H2630.84V651.6L2658.84 686C2643.91 718 2622.31 742 2594.04 758C2565.78 773.467 2535.11 781.2 2502.04 781.2ZM3070.35 781.2C3030.88 781.2 2994.88 772.133 2962.35 754C2930.35 735.333 2904.75 709.467 2885.55 676.4C2866.35 642.8 2856.75 602.8 2856.75 556.4C2856.75 510.533 2866.35 471.067 2885.55 438C2904.75 404.4 2930.35 378.533 2962.35 360.4C2994.88 342.267 3030.88 333.2 3070.35 333.2C3107.68 333.2 3139.15 341.2 3164.75 357.2C3190.88 373.2 3210.62 397.733 3223.95 430.8C3237.28 463.867 3243.95 505.733 3243.95 556.4C3243.95 608.133 3237.55 650.533 3224.75 683.6C3211.95 716.667 3192.75 741.2 3167.15 757.2C3141.55 773.2 3109.28 781.2 3070.35 781.2ZM3102.35 660.4C3119.42 660.4 3134.62 656.4 3147.95 648.4C3161.82 640.4 3172.75 628.667 3180.75 613.2C3188.75 597.2 3192.75 578.267 3192.75 556.4C3192.75 534.533 3188.75 516.133 3180.75 501.2C3172.75 485.733 3161.82 474 3147.95 466C3134.62 458 3119.42 454 3102.35 454C3084.75 454 3069.02 458 3055.15 466C3041.82 474 3031.15 485.733 3023.15 501.2C3015.15 516.133 3011.15 534.533 3011.15 556.4C3011.15 578.267 3015.15 597.2 3023.15 613.2C3031.15 628.667 3041.82 640.4 3055.15 648.4C3069.02 656.4 3084.75 660.4 3102.35 660.4ZM3197.55 774V699.6L3198.35 556.4L3190.35 413.2V180.4H3342.35V774H3197.55ZM3730.54 333.2C3764.14 333.2 3794.54 340.133 3821.74 354C3848.94 367.333 3870.28 388.133 3885.74 416.4C3901.74 444.667 3909.74 481.2 3909.74 526V774H3757.74V550.8C3757.74 519.867 3751.34 497.467 3738.54 483.6C3726.28 469.2 3708.94 462 3686.54 462C3670.54 462 3655.88 465.733 3642.54 473.2C3629.21 480.133 3618.81 491.067 3611.34 506C3603.88 520.933 3600.14 540.4 3600.14 564.4V774H3448.14V180.4H3600.14V463.6L3564.94 427.6C3581.48 396.133 3604.14 372.667 3632.94 357.2C3661.74 341.2 3694.28 333.2 3730.54 333.2ZM4126.16 774L3947.76 340.4H4103.76L4246.16 702.8H4167.76L4317.36 340.4H4462.16L4282.96 774H4126.16ZM4509.46 774V340.4H4661.46V774H4509.46ZM4585.46 292.4C4557.72 292.4 4535.32 284.667 4518.26 269.2C4501.19 253.733 4492.66 234.533 4492.66 211.6C4492.66 188.667 4501.19 169.467 4518.26 154C4535.32 138.533 4557.72 130.8 4585.46 130.8C4613.19 130.8 4635.59 138.267 4652.66 153.2C4669.72 167.6 4678.26 186.267 4678.26 209.2C4678.26 233.2 4669.72 253.2 4652.66 269.2C4636.12 284.667 4613.72 292.4 4585.46 292.4Z" fill="#161616"/>
<defs>
<linearGradient id="paint0_linear_170_269" x1="0" y1="1.5" x2="891.5" y2="973.5" gradientUnits="userSpaceOnUse">
<stop offset="0.396095" stop-color="#282323"/>
<stop offset="1" stop-color="#393A3D"/>
</linearGradient>
<linearGradient id="paint1_linear_170_269" x1="486" y1="223" x2="486" y2="756.5" gradientUnits="userSpaceOnUse">
<stop stop-color="#009BFF"/>
<stop offset="1" stop-color="#0059FF"/>
</linearGradient>
</defs>
</svg>
